<svg xmlns="http://www.w3.org/2000/svg" width="968" height="273" fill="none" viewBox="0 0 968 273"><g opacity=".04"><path fill="#F7F8FE" fill-rule="evenodd" d="M221.926 -209.086C226.807 -213.969 234.72 -213.969 239.601 -209.086L457.438 8.82338C462.319 13.7057 462.319 21.6216 457.438 26.504L239.353 244.662C234.472 249.544 226.559 249.544 221.678 244.662L3.8411 26.7523C-1.03964 21.8699 -1.03965 13.954 3.84109 9.07164L221.926 -209.086ZM475.287 48.5901C480.167 43.7078 488.081 43.7078 492.961 48.5901L710.798 266.5C715.679 271.382 715.679 279.298 710.798 284.18L492.713 502.339C487.832 507.221 479.919 507.221 475.038 502.339L257.201 284.429C252.321 279.546 252.321 271.63 257.201 266.748L475.287 48.5901ZM746.322 -209.086C741.441 -213.969 733.528 -213.969 728.647 -209.086L510.562 9.07166C505.681 13.954 505.681 21.8699 510.562 26.7523L728.399 244.662C733.28 249.544 741.193 249.544 746.074 244.662L964.159 26.504C969.04 21.6216 969.04 13.7057 964.159 8.82338L746.322 -209.086Z" clip-rule="evenodd"/><mask id="mask0" width="968" height="720" x="0" y="-215" mask-type="alpha" maskUnits="userSpaceOnUse"><path fill="#fff" fill-rule="evenodd" d="M221.926 -211.086C226.807 -215.969 234.72 -215.969 239.601 -211.086L457.438 6.82338C462.319 11.7057 462.319 19.6216 457.438 24.504L239.353 242.662C234.472 247.544 226.559 247.544 221.678 242.662L3.8411 24.7523C-1.03964 19.8699 -1.03965 11.954 3.84109 7.07164L221.926 -211.086ZM475.287 46.5901C480.167 41.7078 488.081 41.7078 492.961 46.5901L710.798 264.5C715.679 269.382 715.679 277.298 710.798 282.18L492.713 500.339C487.832 505.221 479.919 505.221 475.038 500.339L257.201 282.429C252.321 277.546 252.321 269.63 257.201 264.748L475.287 46.5901ZM746.322 -211.086C741.441 -215.969 733.528 -215.969 728.647 -211.086L510.562 7.07166C505.681 11.954 505.681 19.8699 510.562 24.7523L728.399 242.662C733.28 247.544 741.193 247.544 746.074 242.662L964.159 24.504C969.04 19.6216 969.04 11.7057 964.159 6.82338L746.322 -211.086Z" clip-rule="evenodd"/></mask></g></svg>