<svg xmlns="http://www.w3.org/2000/svg" width="450" height="120" fill="#fff"><path id="svg_1" fill="#fff" d="m216.6354,94.357l3.7691,0c0.6707,0 1.2364,-0.079 1.6969,-0.238c0.4605,-0.159 0.8309,-0.366 1.1112,-0.62c0.2803,-0.254 0.483,-0.543 0.6082,-0.865c0.1251,-0.322 0.1877,-0.647 0.1877,-0.974c0,-0.518 -0.1227,-0.931 -0.3679,-1.24c-0.2453,-0.308 -0.5381,-0.544 -0.8785,-0.708c-0.3404,-0.163 -0.6908,-0.272 -1.0512,-0.327c-0.3604,-0.054 -0.6507,-0.086 -0.8709,-0.095l0,-0.055c0.3504,0 0.6807,-0.061 0.9911,-0.184c0.3103,-0.122 0.5831,-0.281 0.8184,-0.476c0.2352,-0.196 0.4229,-0.423 0.5631,-0.681c0.1401,-0.259 0.2102,-0.534 0.2102,-0.825c0,-0.254 -0.06,-0.513 -0.1802,-0.776c-0.1201,-0.263 -0.3028,-0.504 -0.5481,-0.722c-0.2452,-0.218 -0.5606,-0.397 -0.946,-0.538c-0.3854,-0.141 -0.8384,-0.211 -1.359,-0.211l-3.7541,0l0,9.535zm1.3665,-0.599l0,-4.168l1.6518,0c0.4905,0 0.916,0.059 1.2764,0.177c0.3604,0.118 0.6582,0.277 0.8935,0.476c0.2352,0.2 0.4104,0.432 0.5255,0.695c0.1152,0.263 0.1727,0.54 0.1727,0.831c0,0.318 -0.0625,0.599 -0.1877,0.845c-0.1251,0.245 -0.2928,0.454 -0.503,0.626c-0.2103,0.173 -0.458,0.302 -0.7434,0.388c-0.2853,0.087 -0.5881,0.13 -0.9084,0.13l-2.1774,0zm0,-4.768l0,-3.569l1.832,0c0.3904,0 0.7233,0.05 0.9986,0.15c0.2753,0.1 0.5005,0.232 0.6757,0.395c0.1752,0.164 0.3028,0.35 0.3829,0.559c0.0801,0.208 0.1202,0.417 0.1202,0.626c0,0.264 -0.0576,0.509 -0.1727,0.736c-0.1151,0.227 -0.2753,0.422 -0.4805,0.586c-0.2053,0.163 -0.4405,0.29 -0.7058,0.381c-0.2653,0.091 -0.5481,0.136 -0.8484,0.136l-1.802,0z"/><path id="svg_2" fill="#fff" d="m244.8667,94.357l0,-9.535l1.3663,0l0,8.786l5.421,0l0,0.749l-6.7873,0z"/><path id="svg_3" fill="#fff" d="m272,89.59c0,0.508 0.108,1.051 0.323,1.627c0.215,0.577 0.553,1.111 1.014,1.601c0.46,0.49 1.046,0.897 1.757,1.219c0.711,0.323 1.561,0.484 2.553,0.484c0.67,0 1.278,-0.075 1.824,-0.225c0.546,-0.15 1.036,-0.352 1.472,-0.606c0.435,-0.254 0.813,-0.547 1.133,-0.879c0.321,-0.331 0.584,-0.681 0.789,-1.049c0.205,-0.367 0.36,-0.738 0.465,-1.11c0.105,-0.372 0.158,-0.726 0.158,-1.062c0,-0.509 -0.115,-1.052 -0.345,-1.628c-0.231,-0.577 -0.586,-1.11 -1.067,-1.601c-0.48,-0.49 -1.088,-0.897 -1.824,-1.219c-0.736,-0.322 -1.604,-0.484 -2.605,-0.484c-0.992,0 -1.842,0.159 -2.553,0.477c-0.711,0.318 -1.297,0.72 -1.757,1.206c-0.461,0.486 -0.799,1.019 -1.014,1.6c-0.215,0.582 -0.323,1.131 -0.323,1.649l0,0zm1.472,0c0,-0.636 0.108,-1.22 0.323,-1.751c0.215,-0.531 0.51,-0.987 0.886,-1.369c0.375,-0.381 0.818,-0.679 1.329,-0.892c0.51,-0.213 1.066,-0.32 1.667,-0.32c0.59,0 1.148,0.107 1.674,0.32c0.526,0.213 0.986,0.511 1.381,0.892c0.396,0.382 0.709,0.838 0.939,1.369c0.23,0.531 0.345,1.115 0.345,1.751c0,0.635 -0.115,1.219 -0.345,1.75c-0.23,0.531 -0.543,0.988 -0.939,1.369c-0.395,0.382 -0.855,0.679 -1.381,0.892c-0.526,0.214 -1.084,0.32 -1.674,0.32c-0.601,0 -1.157,-0.106 -1.667,-0.32c-0.511,-0.213 -0.954,-0.51 -1.329,-0.892c-0.376,-0.381 -0.671,-0.838 -0.886,-1.369c-0.215,-0.531 -0.323,-1.115 -0.323,-1.75z"/><path id="svg_4" fill="#fff" d="m316.504,92.6c-1.021,0.872 -2.233,1.308 -3.634,1.308c-0.781,0 -1.472,-0.123 -2.072,-0.368c-0.601,-0.245 -1.102,-0.572 -1.502,-0.981c-0.4,-0.408 -0.703,-0.881 -0.909,-1.416c-0.205,-0.536 -0.307,-1.095 -0.307,-1.676c0,-0.617 0.107,-1.183 0.322,-1.696c0.216,-0.513 0.519,-0.956 0.909,-1.328c0.39,-0.372 0.853,-0.663 1.389,-0.872c0.536,-0.209 1.119,-0.313 1.749,-0.313c0.431,0 0.824,0.045 1.179,0.136c0.356,0.091 0.671,0.209 0.946,0.354c0.276,0.146 0.501,0.311 0.676,0.497c0.175,0.187 0.298,0.375 0.368,0.566l1.111,0c-0.15,-0.309 -0.343,-0.595 -0.578,-0.858c-0.235,-0.264 -0.528,-0.491 -0.878,-0.682c-0.351,-0.19 -0.761,-0.34 -1.232,-0.449c-0.47,-0.109 -1.006,-0.164 -1.607,-0.164c-0.871,0 -1.664,0.114 -2.38,0.341c-0.715,0.227 -1.329,0.552 -1.839,0.974c-0.511,0.422 -0.906,0.931 -1.187,1.526c-0.28,0.594 -0.42,1.26 -0.42,1.995c0,0.636 0.113,1.256 0.338,1.86c0.225,0.604 0.573,1.139 1.044,1.607c0.47,0.468 1.071,0.845 1.802,1.131c0.73,0.286 1.601,0.429 2.612,0.429c0.641,0 1.214,-0.055 1.72,-0.164c0.505,-0.109 0.946,-0.243 1.321,-0.401c0.376,-0.159 0.688,-0.33 0.939,-0.511c0.25,-0.182 0.44,-0.341 0.57,-0.477l-0.45,-0.368z"/><path id="svg_5" fill="#fff" d="m339.684,94.357l1.366,0l0,-3.351l1.697,-1.648l3.995,4.999l1.561,0l-4.685,-5.844l3.814,-3.691l-0.75,0l-5.632,5.367l0,-5.367l-1.366,0l0,9.535z"/><path id="svg_6" fill="#fff" d="m367.124,91.946c0.02,0.391 0.132,0.745 0.338,1.063c0.205,0.318 0.485,0.588 0.841,0.81c0.355,0.223 0.773,0.395 1.253,0.518c0.481,0.123 1.007,0.184 1.577,0.184c0.581,0 1.104,-0.064 1.569,-0.191c0.466,-0.127 0.864,-0.309 1.194,-0.545c0.331,-0.236 0.586,-0.522 0.766,-0.858c0.18,-0.336 0.27,-0.708 0.27,-1.117c0,-0.563 -0.155,-1.024 -0.465,-1.383c-0.31,-0.358 -0.698,-0.658 -1.164,-0.899c-0.465,-0.24 -0.971,-0.442 -1.517,-0.606c-0.545,-0.163 -1.051,-0.336 -1.516,-0.517c-0.466,-0.182 -0.854,-0.391 -1.164,-0.627c-0.31,-0.236 -0.466,-0.55 -0.466,-0.94c0,-0.218 0.053,-0.422 0.158,-0.613c0.105,-0.191 0.26,-0.356 0.466,-0.497c0.205,-0.141 0.458,-0.254 0.758,-0.341c0.3,-0.086 0.646,-0.129 1.036,-0.129c0.651,0 1.204,0.125 1.659,0.374c0.456,0.25 0.724,0.643 0.804,1.179l1.021,0c-0.06,-0.336 -0.195,-0.638 -0.406,-0.906c-0.21,-0.268 -0.475,-0.495 -0.795,-0.681c-0.321,-0.186 -0.684,-0.327 -1.089,-0.423c-0.406,-0.095 -0.829,-0.143 -1.269,-0.143c-0.46,0 -0.898,0.055 -1.314,0.164c-0.415,0.109 -0.781,0.268 -1.096,0.477c-0.315,0.209 -0.566,0.472 -0.751,0.79c-0.185,0.318 -0.278,0.681 -0.278,1.09c0,0.535 0.15,0.967 0.451,1.294c0.3,0.327 0.678,0.599 1.133,0.817c0.456,0.218 0.949,0.404 1.48,0.558c0.53,0.155 1.023,0.33 1.479,0.525c0.455,0.195 0.833,0.434 1.133,0.715c0.301,0.282 0.451,0.658 0.451,1.131c0,0.59 -0.238,1.021 -0.713,1.294c-0.476,0.272 -1.109,0.408 -1.9,0.408c-0.631,0 -1.136,-0.074 -1.517,-0.224c-0.38,-0.15 -0.67,-0.33 -0.871,-0.538c-0.2,-0.209 -0.335,-0.425 -0.405,-0.647c-0.07,-0.223 -0.11,-0.411 -0.12,-0.566l-1.021,0z" transform="rotate(10 371.028 89.5895)"/><path id="svg_7" fill="#fff" d="m145.78381,40.098l42.08519,0l0,6.282l-35.15978,0l0,7.87l25.03808,0l0,6.283l-25.03808,0l0,14.083l-6.92541,0l0,-34.518z"/><path id="svg_8" fill="#fff" d="m194.49,40.098l6.9254,0l0,25.751c0,1.196 0.6088,1.979 1.8265,2.347c0.3552,0.092 0.6849,0.161 0.9894,0.207l22.6027,0c1.3191,0 2.207,-0.575 2.6636,-1.726c0.1015,-0.276 0.1522,-0.552 0.1522,-0.828l0,-25.751l6.9254,0l0,26.993c0,2.67 -1.243,4.764 -3.729,6.283c-1.4206,0.828 -2.9681,1.242 -4.6423,1.242l-25.3425,0c-2.3339,0 -4.3126,-0.736 -5.9361,-2.209c-1.6235,-1.473 -2.4353,-3.245 -2.4353,-5.316l0,-26.993z"/><path id="svg_9" fill="#fff" d="m243.2725,40.098l6.9255,0l28.234,13.186l0,-13.186l6.85,0l0,34.587l-6.85,0l0,-14.29l-28.234,-13.255l0,27.545l-6.9255,0l0,-34.587z"/><path id="svg_10" fill="#fff" d="m292.207,40.098l6.925,0l26.789,0c2.993,0 5.302,1.104 6.925,3.314c0.964,1.334 1.446,2.761 1.446,4.28l0,19.399c0,2.67 -1.243,4.764 -3.729,6.283c-1.42,0.828 -2.968,1.242 -4.642,1.242l-26.789,0l0,0.069l-6.925,0l0,-0.069l0,-6.213l0,-22.023l0,-6.282zm6.925,6.282l0,22.023l25.419,0c1.319,0 2.207,-0.575 2.664,-1.726c0.101,-0.276 0.152,-0.552 0.152,-0.828l0,-16.914c0,-1.197 -0.609,-2.002 -1.827,-2.417c-0.355,-0.092 -0.685,-0.138 -0.989,-0.138l-25.419,0z"/><path id="svg_11" fill="#fff" d="m341.065,40.098l6.926,0l0,34.587l-6.926,0l0,-34.587z"/><path id="svg_12" fill="#fff" d="m354.84,40.098l6.926,0l28.234,13.186l0,-13.186l6.849,0l0,34.587l-6.849,0l0,-14.29l-28.234,-13.255l0,27.545l-6.926,0l0,-34.587z"/><path id="svg_13" fill="#fff" d="m412.07,40.098c0,0 8.929,0 26.788,0l0,6.282l-25.418,0c-1.319,0 -2.207,0.553 -2.664,1.657c-0.101,0.322 -0.152,0.621 -0.152,0.898l0,16.914c0,1.196 0.609,2.002 1.826,2.416c0.356,0.092 0.685,0.138 0.99,0.138l25.418,0l0,-14.153l6.926,0l0,20.366l-33.714,0c-2.993,0 -5.302,-1.104 -6.925,-3.314c-0.964,-1.288 -1.446,-2.692 -1.446,-4.211l0,-19.399c0,-2.716 1.217,-4.81 3.653,-6.282c1.471,-0.875 3.044,-1.312 4.718,-1.312l0,0z"/><path id="svg_14" fill="#fff" fill-rule="evenodd" d="m18.803,59.3207l41.442,-4.0894l-2.308,-36.5082l-10.188,-16.85079l-45.7938,5.93894l0.2669,40.88355l16.5809,10.6259zm-13.3607,-13.9284c-0.0341,-5.1751 -0.2016,-30.9157 -0.23,-35.03598c4.5307,-0.58475 33.8657,-4.39077 39.4727,-5.11849c0.274,5.10046 1.69,31.39867 1.927,35.79717c-4.86,0.5127 -35.4392,3.7507 -41.1697,4.3573l0,0zm115.0007,11.7414l3.17,-35.3786l-36.637,5.1416l-20.518,-9.5414l0.002,33.7828l19.31,12.9585l34.673,-6.9629zm-53.983,2.867l18.997,13.7751l34.157,-7.3943l-2.751,30.716l-32.442,8.7035l-9.441,-8.5476l-0.167,11.1266l-37.454,10.047l-14.226,-18.7007l-2.413,-31.1179l14.812,15.975l39.766,-8.6102l-8.835,-6.896l-0.003,-9.0765z" clip-rule="evenodd"/></svg>