<svg xmlns:mydata="http://www.w3.org/2000/svg" mydata:contrastcolor="ffffff" mydata:template="Contrast" mydata:presentation="2.5" mydata:layouttype="undefined" mydata:specialfontid="undefined" mydata:id1="750" mydata:id2="203" mydata:companyname="Funding Blocks" mydata:companytagline="" version="1.1" xmlns="http://www.w3.org/2000/svg" xmlns:xlink="http://www.w3.org/1999/xlink" viewBox="0 0 550 470"><g fill="#FFFFFF" fill-rule="none" stroke="none" stroke-width="1" stroke-linecap="butt" stroke-linejoin="miter" stroke-miterlimit="10" stroke-dasharray="" stroke-dashoffset="0" font-family="none" font-weight="none" font-size="none" text-anchor="none" style="mix-blend-mode: normal"><g data-paper-data="{&quot;isGlobalGroup&quot;:true}"><g data-paper-data="{&quot;isSecondaryText&quot;:true}" fill-rule="nonzero"><path d="M186.01536,354.79741h4.23754c0.75409,0 1.39,-0.09848 1.90774,-0.29545c0.51773,-0.19696 0.93417,-0.45302 1.24932,-0.76816c0.31514,-0.31514 0.54306,-0.67249 0.68375,-1.07205c0.14069,-0.39956 0.21103,-0.80193 0.21103,-1.20711c0,-0.64154 -0.13787,-1.15365 -0.41362,-1.53632c-0.27575,-0.38267 -0.60496,-0.67531 -0.98763,-0.8779c-0.38267,-0.20259 -0.7766,-0.33765 -1.18179,-0.40518c-0.40518,-0.06753 -0.73158,-0.10692 -0.97919,-0.11818v-0.06753c0.39393,0 0.76535,-0.07597 1.11425,-0.22792c0.34891,-0.15194 0.65561,-0.34891 0.9201,-0.59089c0.26449,-0.24198 0.47553,-0.52336 0.6331,-0.84413c0.15757,-0.32077 0.23636,-0.66124 0.23636,-1.0214c0,-0.31514 -0.06753,-0.63591 -0.20259,-0.96231c-0.13506,-0.3264 -0.34047,-0.62466 -0.61622,-0.89478c-0.27575,-0.27012 -0.63029,-0.49241 -1.06361,-0.66686c-0.43332,-0.17445 -0.94261,-0.26168 -1.52788,-0.26168h-4.22066zM187.55168,354.05457v-5.16609h1.85709c0.5515,0 1.02984,0.07316 1.43502,0.21947c0.40518,0.14632 0.74002,0.34328 1.00452,0.59089c0.26449,0.24761 0.46146,0.53462 0.59089,0.86101c0.12943,0.3264 0.19415,0.66968 0.19415,1.02984c0,0.39393 -0.07034,0.74284 -0.21103,1.04672c-0.14069,0.30389 -0.32921,0.56275 -0.56557,0.7766c-0.23636,0.21385 -0.51492,0.37423 -0.83569,0.48116c-0.32077,0.10692 -0.66124,0.16039 -1.0214,0.16039zM187.55168,348.14565v-4.42325h2.05968c0.43895,0 0.81318,0.0619 1.1227,0.18571c0.30952,0.12381 0.56275,0.287 0.75972,0.4896c0.19696,0.20259 0.34047,0.43332 0.43051,0.69219c0.09004,0.25887 0.13506,0.51773 0.13506,0.7766c0,0.3264 -0.06472,0.63029 -0.19415,0.91166c-0.12943,0.28138 -0.30952,0.52336 -0.54024,0.72595c-0.23073,0.20259 -0.49522,0.36016 -0.79348,0.47271c-0.29826,0.11255 -0.61622,0.16883 -0.95387,0.16883z" data-paper-data="{&quot;glyphName&quot;:&quot;B&quot;,&quot;glyphIndex&quot;:0,&quot;firstGlyphOfWord&quot;:true,&quot;word&quot;:1}"></path><path d="M217.75521,354.79741v-11.81785h1.53632v10.88931h6.09464v0.92855z" data-paper-data="{&quot;glyphName&quot;:&quot;L&quot;,&quot;glyphIndex&quot;:1,&quot;word&quot;:1}"></path><path d="M248.26088,348.88848c0,0.63029 0.12099,1.30278 0.36298,2.01748c0.24198,0.7147 0.62184,1.37594 1.13958,1.98371c0.51773,0.60778 1.17616,1.11144 1.97527,1.511c0.79911,0.39956 1.7558,0.59933 2.87005,0.59933c0.75409,0 1.43784,-0.09285 2.05124,-0.27856c0.6134,-0.18571 1.1649,-0.43614 1.6545,-0.75128c0.4896,-0.31514 0.91448,-0.67812 1.27464,-1.08893c0.36016,-0.41081 0.65561,-0.84413 0.88634,-1.29996c0.23073,-0.45583 0.40518,-0.91448 0.52336,-1.37594c0.11818,-0.46146 0.17727,-0.90041 0.17727,-1.31685c0,-0.63029 -0.12943,-1.30278 -0.3883,-2.01748c-0.25887,-0.7147 -0.65842,-1.37594 -1.19867,-1.98371c-0.54024,-0.60778 -1.22399,-1.11144 -2.05124,-1.511c-0.82725,-0.39956 -1.80363,-0.59933 -2.92914,-0.59933c-1.11425,0 -2.07094,0.19696 -2.87005,0.59089c-0.79911,0.39393 -1.45754,0.89197 -1.97527,1.49411c-0.51773,0.60215 -0.89759,1.26338 -1.13958,1.98371c-0.24198,0.72033 -0.36298,1.40126 -0.36298,2.0428zM249.91538,348.88848c0,-0.78786 0.12099,-1.511 0.36298,-2.16942c0.24198,-0.65842 0.57401,-1.22399 0.99608,-1.69671c0.42207,-0.47271 0.9201,-0.84132 1.49411,-1.10581c0.57401,-0.26449 1.19867,-0.39674 1.87397,-0.39674c0.66405,0 1.29152,0.13225 1.88242,0.39674c0.59089,0.26449 1.10863,0.6331 1.5532,1.10581c0.44458,0.47271 0.7963,1.03828 1.05517,1.69671c0.25887,0.65842 0.3883,1.38156 0.3883,2.16942c0,0.78786 -0.12943,1.511 -0.3883,2.16942c-0.25887,0.65842 -0.61059,1.22399 -1.05517,1.69671c-0.44458,0.47271 -0.96231,0.84132 -1.5532,1.10581c-0.59089,0.26449 -1.21836,0.39674 -1.88242,0.39674c-0.67531,0 -1.29996,-0.13225 -1.87397,-0.39674c-0.57401,-0.26449 -1.07205,-0.6331 -1.49411,-1.10581c-0.42207,-0.47271 -0.75409,-1.03828 -0.99608,-1.69671c-0.24198,-0.65842 -0.36298,-1.38156 -0.36298,-2.16942z" data-paper-data="{&quot;glyphName&quot;:&quot;O&quot;,&quot;glyphIndex&quot;:2,&quot;word&quot;:1}"></path><path d="M298.29497,352.61955c-1.14802,1.08049 -2.50989,1.62073 -4.0856,1.62073c-0.8779,0 -1.6545,-0.15194 -2.32981,-0.45583c-0.67531,-0.30389 -1.23806,-0.70907 -1.68826,-1.21555c-0.4502,-0.50648 -0.79067,-1.09174 -1.0214,-1.7558c-0.23073,-0.66405 -0.34609,-1.35624 -0.34609,-2.07657c0,-0.76535 0.12099,-1.46598 0.36298,-2.10189c0.24198,-0.63591 0.58245,-1.1846 1.0214,-1.64606c0.43895,-0.46146 0.9595,-0.82162 1.56164,-1.08049c0.60215,-0.25887 1.25776,-0.3883 1.96683,-0.3883c0.48397,0 0.92573,0.05628 1.32529,0.16883c0.39956,0.11255 0.75409,0.25887 1.06361,0.43895c0.30952,0.18008 0.56275,0.38549 0.75972,0.61622c0.19696,0.23073 0.33484,0.46427 0.41362,0.70063h1.24932c-0.16883,-0.38267 -0.38549,-0.73721 -0.64998,-1.06361c-0.26449,-0.3264 -0.59371,-0.60778 -0.98763,-0.84413c-0.39393,-0.23636 -0.85539,-0.42207 -1.38438,-0.55713c-0.52899,-0.13506 -1.13114,-0.20259 -1.80644,-0.20259c-0.97919,0 -1.87116,0.14069 -2.6759,0.42207c-0.80474,0.28138 -1.49411,0.68375 -2.06812,1.20711c-0.57401,0.52336 -1.01859,1.15365 -1.33373,1.89086c-0.31514,0.73721 -0.47271,1.56164 -0.47271,2.47331c0,0.78786 0.12662,1.55602 0.37986,2.30448c0.25324,0.74846 0.64435,1.41251 1.17334,1.99215c0.52899,0.57964 1.2043,1.04672 2.02592,1.40126c0.82162,0.35454 1.80082,0.5318 2.93758,0.5318c0.72033,0 1.36468,-0.06753 1.93306,-0.20259c0.56838,-0.13506 1.06361,-0.30107 1.48567,-0.49804c0.42207,-0.19696 0.77379,-0.408 1.05517,-0.6331c0.28138,-0.2251 0.49522,-0.42207 0.64154,-0.59089z" data-paper-data="{&quot;glyphName&quot;:&quot;C&quot;,&quot;glyphIndex&quot;:3,&quot;word&quot;:1}"></path><path d="M324.35562,354.79741h1.53632v-4.15313l1.90774,-2.0428l4.49078,6.19593h1.7558l-5.26739,-7.24266l4.28819,-4.5752h-0.84413l-6.33099,6.65176v-6.65176h-1.53632z" data-paper-data="{&quot;glyphName&quot;:&quot;K&quot;,&quot;glyphIndex&quot;:4,&quot;word&quot;:1}"></path><path d="M355.20567,351.80918c0.02251,0.48397 0.14913,0.92292 0.37986,1.31685c0.23073,0.39393 0.54587,0.72877 0.94543,1.00452c0.39956,0.27575 0.86946,0.4896 1.4097,0.64154c0.54024,0.15194 1.13114,0.22792 1.77268,0.22792c0.6528,0 1.24087,-0.07879 1.76424,-0.23636c0.52336,-0.15757 0.97075,-0.38267 1.34217,-0.67531c0.37142,-0.29263 0.65842,-0.64717 0.86101,-1.06361c0.20259,-0.41644 0.30389,-0.8779 0.30389,-1.38438c0,-0.69782 -0.17445,-1.26901 -0.52336,-1.71359c-0.34891,-0.44458 -0.78504,-0.81599 -1.30841,-1.11425c-0.52336,-0.29826 -1.09174,-0.54869 -1.70515,-0.75128c-0.6134,-0.20259 -1.18179,-0.41644 -1.70515,-0.64154c-0.52336,-0.2251 -0.9595,-0.48397 -1.30841,-0.7766c-0.34891,-0.29263 -0.52336,-0.68093 -0.52336,-1.1649c0,-0.27012 0.05909,-0.52336 0.17727,-0.75972c0.11818,-0.23636 0.29263,-0.44176 0.52336,-0.61622c0.23073,-0.17445 0.51492,-0.31514 0.85257,-0.42207c0.33765,-0.10692 0.72595,-0.16039 1.1649,-0.16039c0.73158,0 1.35343,0.15476 1.86553,0.46427c0.51211,0.30952 0.81318,0.7963 0.90322,1.46035h1.14802c-0.06753,-0.41644 -0.21947,-0.79067 -0.45583,-1.1227c-0.23636,-0.33203 -0.53462,-0.6134 -0.89478,-0.84413c-0.36016,-0.23073 -0.76816,-0.40518 -1.22399,-0.52336c-0.45583,-0.11818 -0.93136,-0.17727 -1.42658,-0.17727c-0.51773,0 -1.01015,0.06753 -1.47723,0.20259c-0.46709,0.13506 -0.8779,0.33203 -1.23243,0.59089c-0.35454,0.25887 -0.63591,0.58527 -0.84413,0.97919c-0.20822,0.39393 -0.31233,0.84413 -0.31233,1.35061c0,0.66405 0.16883,1.19867 0.50648,1.60385c0.33765,0.40518 0.76253,0.74284 1.27464,1.01296c0.51211,0.27012 1.06642,0.50085 1.66294,0.69219c0.59652,0.19134 1.15083,0.408 1.66294,0.64998c0.51211,0.24198 0.93699,0.53743 1.27464,0.88634c0.33765,0.34891 0.50648,0.81599 0.50648,1.40126c0,0.73158 -0.26731,1.2662 -0.80193,1.60385c-0.53462,0.33765 -1.2465,0.50648 -2.13565,0.50648c-0.70907,0 -1.27745,-0.09285 -1.70515,-0.27856c-0.42769,-0.18571 -0.75409,-0.408 -0.97919,-0.66686c-0.2251,-0.25887 -0.37705,-0.52618 -0.45583,-0.80193c-0.07879,-0.27575 -0.12381,-0.50929 -0.13506,-0.70063z" data-paper-data="{&quot;glyphName&quot;:&quot;S&quot;,&quot;glyphIndex&quot;:5,&quot;lastGlyphOfWord&quot;:true,&quot;word&quot;:1}"></path></g><g data-paper-data="{&quot;isPrimaryText&quot;:true}" fill-rule="nonzero"><path d="M106.35877,287.55066h47.31537v7.78607h-39.5293v9.75398h28.14965v7.78607h-28.14965v17.4545h-7.78607z" data-paper-data="{&quot;glyphName&quot;:&quot;F&quot;,&quot;glyphIndex&quot;:0,&quot;firstGlyphOfWord&quot;:true,&quot;word&quot;:1}"></path><path d="M161.11797,287.55066h7.78607v31.91435c0,1.48306 0.68449,2.45276 2.05347,2.90908c0.39929,0.11408 0.77005,0.19964 1.1123,0.25668h25.41169c1.48306,0 2.48128,-0.71301 2.99464,-2.13903c0.11408,-0.34225 0.17112,-0.68449 0.17112,-1.02674v-31.91435h7.78607v33.45445c0,3.30837 -1.3975,5.90373 -4.1925,7.78607c-1.59714,1.02674 -3.33689,1.5401 -5.21924,1.5401h-28.4919c-2.62388,0 -4.84847,-0.91265 -6.67378,-2.73796c-1.82531,-1.82531 -2.73796,-4.02138 -2.73796,-6.58822z" data-paper-data="{&quot;glyphName&quot;:&quot;U&quot;,&quot;glyphIndex&quot;:1,&quot;word&quot;:1}"></path><path d="M215.96274,287.55066h7.78607l31.74322,16.3422v-16.3422h7.70051v42.86619h-7.70051v-17.71118l-31.74322,-16.42776v34.13894h-7.78607z" data-paper-data="{&quot;glyphName&quot;:&quot;N&quot;,&quot;glyphIndex&quot;:2,&quot;word&quot;:1}"></path><path d="M270.97862,287.55066h7.78607h30.11756c3.36541,0 5.96077,1.36898 7.78607,4.10694c1.08378,1.65418 1.62566,3.42245 1.62566,5.3048v24.04271c0,3.30837 -1.3975,5.90373 -4.1925,7.78607c-1.59714,1.02674 -3.33689,1.5401 -5.21924,1.5401h-30.11756v0.08556h-7.78607v-0.08556v-7.70051v-27.29404zM278.7647,295.33674v27.29404h28.57746c1.48306,0 2.48128,-0.71301 2.99464,-2.13903c0.11408,-0.34225 0.17112,-0.68449 0.17112,-1.02674v-20.96251c0,-1.48306 -0.68449,-2.48128 -2.05347,-2.99464c-0.39929,-0.11408 -0.77005,-0.17112 -1.1123,-0.17112z" data-paper-data="{&quot;glyphName&quot;:&quot;D&quot;,&quot;glyphIndex&quot;:3,&quot;word&quot;:1}"></path><path d="M325.90894,287.55066h7.78607v42.86619h-7.78607z" data-paper-data="{&quot;glyphName&quot;:&quot;I&quot;,&quot;glyphIndex&quot;:4,&quot;word&quot;:1}"></path><path d="M341.39553,287.55066h7.78607l31.74322,16.3422v-16.3422h7.70051v42.86619h-7.70051v-17.71118l-31.74322,-16.42776v34.13894h-7.78607z" data-paper-data="{&quot;glyphName&quot;:&quot;N&quot;,&quot;glyphIndex&quot;:5,&quot;word&quot;:1}"></path><path d="M405.73759,287.55066c0,0 10.03919,0 30.11756,0v7.78607h-28.57746c-1.48306,0 -2.48128,0.68449 -2.99464,2.05347c-0.11408,0.39929 -0.17112,0.77005 -0.17112,1.1123v20.96251c0,1.48306 0.68449,2.48128 2.05347,2.99464c0.39929,0.11408 0.77005,0.17112 1.1123,0.17112h28.57746v-17.54006h7.78607v25.24057h-37.90363c-3.36541,0 -5.96077,-1.36898 -7.78607,-4.10694c-1.08378,-1.59714 -1.62566,-3.33689 -1.62566,-5.21924v-24.04271c0,-3.36541 1.36898,-5.96077 4.10694,-7.78607c1.65418,-1.08378 3.42245,-1.62566 5.3048,-1.62566z" data-paper-data="{&quot;glyphName&quot;:&quot;G&quot;,&quot;glyphIndex&quot;:6,&quot;lastGlyphOfWord&quot;:true,&quot;word&quot;:1}"></path></g><g data-paper-data="{&quot;isIcon&quot;:&quot;true&quot;,&quot;iconType&quot;:&quot;icon&quot;,&quot;rawIconId&quot;:&quot;27779&quot;,&quot;selectedEffects&quot;:{&quot;container&quot;:&quot;&quot;,&quot;transformation&quot;:&quot;&quot;,&quot;pattern&quot;:&quot;&quot;},&quot;fillRule&quot;:&quot;evenodd&quot;,&quot;bounds&quot;:{&quot;x&quot;:206.61186671265574,&quot;y&quot;:115,&quot;width&quot;:136.77626657468852,&quot;height&quot;:144.45281413674712},&quot;iconStyle&quot;:&quot;standalone&quot;}" fill-rule="evenodd"><path d="M225.55341,186.1992l46.59243,-5.06821l-2.59556,-45.24676l-11.45336,-20.88422l-51.48505,7.36048l0.3001,50.66935zM210.53234,168.93695c-0.03831,-6.41388 -0.22668,-38.31568 -0.2586,-43.42221c5.09375,-0.72471 38.07464,-5.44174 44.37838,-6.34365c0.30808,6.3213 1.89958,38.91429 2.16616,44.36561c-5.46409,0.63533 -39.84333,4.64839 -46.28594,5.40024zM339.82522,183.4887l3.56291,-43.84682l-41.189,6.37238l-23.06794,-11.8253l0.0016,41.86901l21.7095,16.06024zM279.13278,187.04203l21.35832,17.07229l38.40188,-9.16428l-3.0936,38.06826l-36.47356,10.78611l-10.61371,-10.59296l-0.18836,13.79033l-42.10846,12.45104l-15.9932,-23.17649l-2.71369,-38.5663l16.65247,19.79875l44.70881,-10.67118l-9.9337,-8.54652z" data-paper-data="{&quot;isPathIcon&quot;:true}"></path></g></g></g></svg>
