<svg xmlns="http://www.w3.org/2000/svg" width="301" height="195" fill="#fff" viewBox="0 0 301 195"><path fill="#fff" d="M71.6354 194.357H75.4045C76.0752 194.357 76.6409 194.278 77.1014 194.119C77.5619 193.96 77.9323 193.753 78.2126 193.499C78.4929 193.245 78.6956 192.956 78.8208 192.634C78.9459 192.312 79.0085 191.987 79.0085 191.66C79.0085 191.142 78.8858 190.729 78.6406 190.42C78.3953 190.112 78.1025 189.876 77.7621 189.712C77.4217 189.549 77.0713 189.44 76.7109 189.385C76.3505 189.331 76.0602 189.299 75.84 189.29V189.235C76.1904 189.235 76.5207 189.174 76.8311 189.051C77.1414 188.929 77.4142 188.77 77.6495 188.575C77.8847 188.379 78.0724 188.152 78.2126 187.894C78.3527 187.635 78.4228 187.36 78.4228 187.069C78.4228 186.815 78.3628 186.556 78.2426 186.293C78.1225 186.03 77.9398 185.789 77.6945 185.571C77.4493 185.353 77.1339 185.174 76.7485 185.033C76.3631 184.892 75.9101 184.822 75.3895 184.822H71.6354V194.357ZM73.0019 193.758V189.59H74.6537C75.1442 189.59 75.5697 189.649 75.9301 189.767C76.2905 189.885 76.5883 190.044 76.8236 190.243C77.0588 190.443 77.234 190.675 77.3491 190.938C77.4643 191.201 77.5218 191.478 77.5218 191.769C77.5218 192.087 77.4593 192.368 77.3341 192.614C77.209 192.859 77.0413 193.068 76.8311 193.24C76.6208 193.413 76.3731 193.542 76.0877 193.628C75.8024 193.715 75.4996 193.758 75.1793 193.758H73.0019ZM73.0019 188.99V185.421H74.8339C75.2243 185.421 75.5572 185.471 75.8325 185.571C76.1078 185.671 76.333 185.803 76.5082 185.966C76.6834 186.13 76.811 186.316 76.8911 186.525C76.9712 186.733 77.0113 186.942 77.0113 187.151C77.0113 187.415 76.9537 187.66 76.8386 187.887C76.7235 188.114 76.5633 188.309 76.3581 188.473C76.1528 188.636 75.9176 188.763 75.6523 188.854C75.387 188.945 75.1042 188.99 74.8039 188.99H73.0019Z"/><path fill="#fff" d="M99.8667 194.357V184.822H101.233V193.608H106.654V194.357H99.8667Z"/><path fill="#fff" d="M127 189.59C127 190.098 127.108 190.641 127.323 191.217C127.538 191.794 127.876 192.328 128.337 192.818C128.797 193.308 129.383 193.715 130.094 194.037C130.805 194.36 131.655 194.521 132.647 194.521C133.317 194.521 133.925 194.446 134.471 194.296C135.017 194.146 135.507 193.944 135.943 193.69C136.378 193.436 136.756 193.143 137.076 192.811C137.397 192.48 137.66 192.13 137.865 191.762C138.07 191.395 138.225 191.024 138.33 190.652C138.435 190.28 138.488 189.926 138.488 189.59C138.488 189.081 138.373 188.538 138.143 187.962C137.912 187.385 137.557 186.852 137.076 186.361C136.596 185.871 135.988 185.464 135.252 185.142C134.516 184.82 133.648 184.658 132.647 184.658C131.655 184.658 130.805 184.817 130.094 185.135C129.383 185.453 128.797 185.855 128.337 186.341C127.876 186.827 127.538 187.36 127.323 187.941C127.108 188.523 127 189.072 127 189.59V189.59ZM128.472 189.59C128.472 188.954 128.58 188.37 128.795 187.839C129.01 187.308 129.305 186.852 129.681 186.47C130.056 186.089 130.499 185.791 131.01 185.578C131.52 185.365 132.076 185.258 132.677 185.258C133.267 185.258 133.825 185.365 134.351 185.578C134.877 185.791 135.337 186.089 135.732 186.47C136.128 186.852 136.441 187.308 136.671 187.839C136.901 188.37 137.016 188.954 137.016 189.59C137.016 190.225 136.901 190.809 136.671 191.34C136.441 191.871 136.128 192.328 135.732 192.709C135.337 193.091 134.877 193.388 134.351 193.601C133.825 193.815 133.267 193.921 132.677 193.921C132.076 193.921 131.52 193.815 131.01 193.601C130.499 193.388 130.056 193.091 129.681 192.709C129.305 192.328 129.01 191.871 128.795 191.34C128.58 190.809 128.472 190.225 128.472 189.59Z"/><path fill="#fff" d="M171.504 192.6C170.483 193.472 169.271 193.908 167.87 193.908C167.089 193.908 166.398 193.785 165.798 193.54C165.197 193.295 164.696 192.968 164.296 192.559C163.896 192.151 163.593 191.678 163.387 191.143C163.182 190.607 163.08 190.048 163.08 189.467C163.08 188.85 163.187 188.284 163.402 187.771C163.618 187.258 163.921 186.815 164.311 186.443C164.701 186.071 165.164 185.78 165.7 185.571C166.236 185.362 166.819 185.258 167.449 185.258C167.88 185.258 168.273 185.303 168.628 185.394C168.984 185.485 169.299 185.603 169.574 185.748C169.85 185.894 170.075 186.059 170.25 186.245C170.425 186.432 170.548 186.62 170.618 186.811H171.729C171.579 186.502 171.386 186.216 171.151 185.953C170.916 185.689 170.623 185.462 170.273 185.271C169.922 185.081 169.512 184.931 169.041 184.822C168.571 184.713 168.035 184.658 167.434 184.658C166.563 184.658 165.77 184.772 165.054 184.999C164.339 185.226 163.725 185.551 163.215 185.973C162.704 186.395 162.309 186.904 162.028 187.499C161.748 188.093 161.608 188.759 161.608 189.494C161.608 190.13 161.721 190.75 161.946 191.354C162.171 191.958 162.519 192.493 162.99 192.961C163.46 193.429 164.061 193.806 164.792 194.092C165.522 194.378 166.393 194.521 167.404 194.521C168.045 194.521 168.618 194.466 169.124 194.357C169.629 194.248 170.07 194.114 170.445 193.956C170.821 193.797 171.133 193.626 171.384 193.445C171.634 193.263 171.824 193.104 171.954 192.968L171.504 192.6Z"/><path fill="#fff" d="M194.684 194.357H196.05V191.006L197.747 189.358L201.742 194.357H203.303L198.618 188.513L202.432 184.822H201.682L196.05 190.189V184.822H194.684V194.357Z"/>--&gt;<path fill="#fff" d="M222.124 191.946C222.144 192.337 222.256 192.691 222.462 193.009C222.667 193.327 222.947 193.597 223.303 193.819C223.658 194.042 224.076 194.214 224.556 194.337C225.037 194.46 225.563 194.521 226.133 194.521C226.714 194.521 227.237 194.457 227.702 194.33C228.168 194.203 228.566 194.021 228.896 193.785C229.227 193.549 229.482 193.263 229.662 192.927C229.842 192.591 229.932 192.219 229.932 191.81C229.932 191.247 229.777 190.786 229.467 190.427C229.157 190.069 228.769 189.769 228.303 189.528C227.838 189.288 227.332 189.086 226.786 188.922C226.241 188.759 225.735 188.586 225.27 188.405C224.804 188.223 224.416 188.014 224.106 187.778C223.796 187.542 223.64 187.228 223.64 186.838C223.64 186.62 223.693 186.416 223.798 186.225C223.903 186.034 224.058 185.869 224.264 185.728C224.469 185.587 224.722 185.474 225.022 185.387C225.322 185.301 225.668 185.258 226.058 185.258C226.709 185.258 227.262 185.383 227.717 185.632C228.173 185.882 228.441 186.275 228.521 186.811H229.542C229.482 186.475 229.347 186.173 229.136 185.905C228.926 185.637 228.661 185.41 228.341 185.224C228.02 185.038 227.657 184.897 227.252 184.801C226.846 184.706 226.423 184.658 225.983 184.658C225.523 184.658 225.085 184.713 224.669 184.822C224.254 184.931 223.888 185.09 223.573 185.299C223.258 185.508 223.007 185.771 222.822 186.089C222.637 186.407 222.544 186.77 222.544 187.179C222.544 187.714 222.694 188.146 222.995 188.473C223.295 188.8 223.673 189.072 224.128 189.29C224.584 189.508 225.077 189.694 225.608 189.848C226.138 190.003 226.631 190.178 227.087 190.373C227.542 190.568 227.92 190.807 228.22 191.088C228.521 191.37 228.671 191.746 228.671 192.219C228.671 192.809 228.433 193.24 227.958 193.513C227.482 193.785 226.849 193.921 226.058 193.921C225.427 193.921 224.922 193.847 224.541 193.697C224.161 193.547 223.871 193.367 223.67 193.159C223.47 192.95 223.335 192.734 223.265 192.512C223.195 192.289 223.155 192.101 223.145 191.946H222.124Z"/><path fill="#fff" d="M0.783813 140.098H42.869V146.38H7.70922V154.25H32.7473V160.533H7.70922V174.616H0.783813V140.098Z"/><path fill="#fff" d="M49.49 140.098H56.4154V165.849C56.4154 167.045 57.0242 167.828 58.2419 168.196C58.5971 168.288 58.9268 168.357 59.2313 168.403H81.834C83.1531 168.403 84.041 167.828 84.4976 166.677C84.5991 166.401 84.6498 166.125 84.6498 165.849V140.098H91.5752V167.091C91.5752 169.761 90.3322 171.855 87.8462 173.374C86.4256 174.202 84.8781 174.616 83.2039 174.616H57.8614C55.5275 174.616 53.5488 173.88 51.9253 172.407C50.3018 170.934 49.49 169.162 49.49 167.091L49.49 140.098Z"/><path fill="#fff" d="M98.2725 140.098H105.198L133.432 153.284V140.098H140.282V174.685H133.432V160.395L105.198 147.14V174.685H98.2725V140.098Z"/><path fill="#fff" d="M147.207 140.098H154.132H180.921C183.914 140.098 186.223 141.202 187.846 143.412C188.81 144.746 189.292 146.173 189.292 147.692V167.091C189.292 169.761 188.049 171.855 185.563 173.374C184.143 174.202 182.595 174.616 180.921 174.616H154.132V174.685H147.207V174.616V168.403V146.38V140.098ZM154.132 146.38V168.403H179.551C180.87 168.403 181.758 167.828 182.215 166.677C182.316 166.401 182.367 166.125 182.367 165.849V148.935C182.367 147.738 181.758 146.933 180.54 146.518C180.185 146.426 179.855 146.38 179.551 146.38H154.132Z"/><path fill="#fff" d="M196.065 140.098H202.991V174.685H196.065V140.098Z"/><path fill="#fff" d="M209.84 140.098H216.766L245 153.284V140.098H251.849V174.685H245V160.395L216.766 147.14V174.685H209.84V140.098Z"/><path fill="#fff" d="M267.07 140.098C267.07 140.098 275.999 140.098 293.858 140.098V146.38H268.44C267.121 146.38 266.233 146.933 265.776 148.037C265.675 148.359 265.624 148.658 265.624 148.935V165.849C265.624 167.045 266.233 167.851 267.45 168.265C267.806 168.357 268.135 168.403 268.44 168.403H293.858V154.25H300.784V174.616H267.07C264.077 174.616 261.768 173.512 260.145 171.302C259.181 170.014 258.699 168.61 258.699 167.091V147.692C258.699 144.976 259.916 142.882 262.352 141.41C263.823 140.535 265.396 140.098 267.07 140.098H267.07Z"/><path fill="#fff" fill-rule="evenodd" d="M106.803 58.3207L148.245 54.2313L145.937 17.7231L135.749 0.872314L89.9552 6.81125L90.2221 47.6948L106.803 58.3207ZM93.4423 44.3923C93.4082 39.2172 93.2407 13.4766 93.2123 9.35632C97.743 8.77157 127.078 4.96555 132.685 4.23783C132.959 9.33829 134.375 35.6365 134.612 40.035C129.752 40.5477 99.1728 43.7857 93.4423 44.3923V44.3923ZM208.443 56.1337L211.613 20.7551L174.976 25.8967L154.458 16.3553L154.46 50.1381L173.77 63.0966L208.443 56.1337ZM154.46 59.0007L173.457 72.7758L207.614 65.3815L204.863 96.0975L172.421 104.801L162.98 96.2534L162.813 107.38L125.359 117.427L111.133 98.7263L108.72 67.6084L123.532 83.5834L163.298 74.9732L154.463 68.0772L154.46 59.0007Z" clip-rule="evenodd"/></svg>