<svg xmlns="http://www.w3.org/2000/svg" width="138" height="144" fill="none" viewBox="0 0 138 144"><path fill="#fff" d="M19.3736 71.0106L66.1354 65.9748L63.5304 21.0168L52.0354 0.265869L0.363159 7.57937L0.664345 57.9253L19.3736 71.0106ZM4.29787 53.8585C4.25942 47.4856 4.07038 15.7874 4.03834 10.7135C9.15061 9.9934 42.2514 5.30648 48.5781 4.41033C48.8873 10.6913 50.4846 43.0762 50.7521 48.4928C45.2682 49.124 10.7639 53.1115 4.29787 53.8585V53.8585ZM134.061 68.3174L137.637 24.7505L96.298 31.0822L73.1462 19.3323L73.1478 60.9341L94.9362 76.8918L134.061 68.3174ZM73.1478 71.848L94.5837 88.8114L133.125 79.7056L130.02 117.531L93.4142 128.248L82.7619 117.723L82.5729 131.425L40.3113 143.797L24.26 120.768L21.5364 82.448L38.2494 102.12L83.1208 91.5173L73.151 83.0253L73.1478 71.848Z"/></svg>